<mxfile host="www.draw.io" modified="2019-11-06T01:47:05.056Z" agent="Mozilla/5.0 (Windows NT 10.0; Win64; x64) AppleWebKit/537.36 (KHTML, like Gecko) Chrome/79.0.3945.16 Safari/537.36" etag="IrNS8oND3WpmosIzGMC3" version="12.2.0" type="github" pages="1">
  <diagram name="Page-1" id="edf60f1a-56cd-e834-aa8a-f176f3a09ee4">
    <mxGraphModel dx="1408" dy="868" grid="1" gridSize="10" guides="1" tooltips="1" connect="1" arrows="1" fold="1" page="1" pageScale="1" pageWidth="1100" pageHeight="850" background="#ffffff" math="0" shadow="0">
      <root>
        <mxCell id="0"/>
        <mxCell id="1" parent="0"/>
        <mxCell id="60e70716793133e9-32" style="edgeStyle=orthogonalEdgeStyle;rounded=0;html=1;labelBackgroundColor=none;startSize=5;endArrow=classicThin;endFill=1;endSize=5;jettySize=auto;orthogonalLoop=1;strokeColor=#000000;strokeWidth=1;fontFamily=Verdana;fontSize=8;fontColor=#000000;entryX=0.5;entryY=0;entryDx=0;entryDy=0;" parent="1" source="60e70716793133e9-4" target="eXyIBpikk9vXLyjZJqM5-1" edge="1">
          <mxGeometry relative="1" as="geometry"/>
        </mxCell>
        <mxCell id="60e70716793133e9-4" value="View Driver Queue" style="rounded=0;whiteSpace=wrap;html=1;shadow=1;labelBackgroundColor=none;strokeColor=#000000;strokeWidth=1;fillColor=#ffffff;fontFamily=Verdana;fontSize=8;fontColor=#000000;align=center;" parent="1" vertex="1">
          <mxGeometry x="100" y="80" width="120" height="60" as="geometry"/>
        </mxCell>
        <mxCell id="60e70716793133e9-30" value="End" style="strokeWidth=1;html=1;shape=mxgraph.flowchart.terminator;whiteSpace=wrap;rounded=0;shadow=1;labelBackgroundColor=none;fillColor=#ffffff;fontFamily=Verdana;fontSize=8;fontColor=#000000;align=center;" parent="1" vertex="1">
          <mxGeometry x="615" y="720" width="60" height="30" as="geometry"/>
        </mxCell>
        <mxCell id="eXyIBpikk9vXLyjZJqM5-5" value="" style="edgeStyle=orthogonalEdgeStyle;rounded=0;orthogonalLoop=1;jettySize=auto;html=1;entryX=0;entryY=0.5;entryDx=0;entryDy=0;" edge="1" parent="1" source="eXyIBpikk9vXLyjZJqM5-1" target="eXyIBpikk9vXLyjZJqM5-3">
          <mxGeometry relative="1" as="geometry">
            <mxPoint x="280" y="200" as="targetPoint"/>
          </mxGeometry>
        </mxCell>
        <mxCell id="eXyIBpikk9vXLyjZJqM5-1" value="Select PUP" style="verticalLabelPosition=bottom;verticalAlign=top;html=1;strokeWidth=2;shape=process;whiteSpace=wrap;rounded=1;size=0.14;arcSize=6;" vertex="1" parent="1">
          <mxGeometry x="110" y="170" width="100" height="60" as="geometry"/>
        </mxCell>
        <mxCell id="eXyIBpikk9vXLyjZJqM5-60" value="" style="edgeStyle=orthogonalEdgeStyle;rounded=0;orthogonalLoop=1;jettySize=auto;html=1;entryX=0;entryY=0.5;entryDx=0;entryDy=0;" edge="1" parent="1" source="eXyIBpikk9vXLyjZJqM5-3" target="eXyIBpikk9vXLyjZJqM5-6">
          <mxGeometry relative="1" as="geometry">
            <mxPoint x="500" y="200" as="targetPoint"/>
          </mxGeometry>
        </mxCell>
        <mxCell id="eXyIBpikk9vXLyjZJqM5-3" value="View PUP" style="rounded=0;whiteSpace=wrap;html=1;shadow=1;labelBackgroundColor=none;strokeColor=#000000;strokeWidth=1;fillColor=#ffffff;fontFamily=Verdana;fontSize=8;fontColor=#000000;align=center;" vertex="1" parent="1">
          <mxGeometry x="300" y="170" width="120" height="60" as="geometry"/>
        </mxCell>
        <mxCell id="eXyIBpikk9vXLyjZJqM5-53" value="" style="edgeStyle=orthogonalEdgeStyle;rounded=0;orthogonalLoop=1;jettySize=auto;html=1;entryX=0.5;entryY=0;entryDx=0;entryDy=0;" edge="1" parent="1" source="eXyIBpikk9vXLyjZJqM5-6" target="eXyIBpikk9vXLyjZJqM5-8">
          <mxGeometry relative="1" as="geometry">
            <mxPoint x="670" y="290" as="targetPoint"/>
          </mxGeometry>
        </mxCell>
        <mxCell id="eXyIBpikk9vXLyjZJqM5-6" value="Driver Starts Transit" style="rounded=1;whiteSpace=wrap;html=1;shadow=1;labelBackgroundColor=none;strokeColor=#000000;strokeWidth=1;fillColor=#ffffff;fontFamily=Verdana;fontSize=8;fontColor=#000000;align=center;" vertex="1" parent="1">
          <mxGeometry x="580" y="180" width="100" height="40" as="geometry"/>
        </mxCell>
        <mxCell id="eXyIBpikk9vXLyjZJqM5-11" value="" style="edgeStyle=orthogonalEdgeStyle;rounded=0;orthogonalLoop=1;jettySize=auto;html=1;" edge="1" parent="1" source="eXyIBpikk9vXLyjZJqM5-8" target="eXyIBpikk9vXLyjZJqM5-10">
          <mxGeometry relative="1" as="geometry"/>
        </mxCell>
        <mxCell id="eXyIBpikk9vXLyjZJqM5-8" value="Driver Arrives" style="rounded=1;whiteSpace=wrap;html=1;shadow=1;labelBackgroundColor=none;strokeColor=#000000;strokeWidth=1;fillColor=#ffffff;fontFamily=Verdana;fontSize=8;fontColor=#000000;align=center;" vertex="1" parent="1">
          <mxGeometry x="580" y="250" width="100" height="40" as="geometry"/>
        </mxCell>
        <mxCell id="eXyIBpikk9vXLyjZJqM5-15" value="" style="edgeStyle=orthogonalEdgeStyle;rounded=0;orthogonalLoop=1;jettySize=auto;html=1;" edge="1" parent="1" source="eXyIBpikk9vXLyjZJqM5-10" target="eXyIBpikk9vXLyjZJqM5-14">
          <mxGeometry relative="1" as="geometry"/>
        </mxCell>
        <mxCell id="eXyIBpikk9vXLyjZJqM5-10" value="Assess PUP" style="verticalLabelPosition=bottom;verticalAlign=top;html=1;strokeWidth=2;shape=process;whiteSpace=wrap;rounded=1;size=0.14;arcSize=6;" vertex="1" parent="1">
          <mxGeometry x="220" y="320" width="100" height="60" as="geometry"/>
        </mxCell>
        <mxCell id="eXyIBpikk9vXLyjZJqM5-19" value="" style="edgeStyle=orthogonalEdgeStyle;rounded=0;orthogonalLoop=1;jettySize=auto;html=1;" edge="1" parent="1" source="eXyIBpikk9vXLyjZJqM5-14" target="eXyIBpikk9vXLyjZJqM5-18">
          <mxGeometry relative="1" as="geometry"/>
        </mxCell>
        <mxCell id="eXyIBpikk9vXLyjZJqM5-34" value="Yes" style="edgeStyle=orthogonalEdgeStyle;rounded=0;orthogonalLoop=1;jettySize=auto;html=1;entryX=0;entryY=0.5;entryDx=0;entryDy=0;" edge="1" parent="1" source="eXyIBpikk9vXLyjZJqM5-14" target="eXyIBpikk9vXLyjZJqM5-33">
          <mxGeometry relative="1" as="geometry">
            <mxPoint x="595" y="360" as="targetPoint"/>
          </mxGeometry>
        </mxCell>
        <mxCell id="eXyIBpikk9vXLyjZJqM5-14" value="PUP Details are acceptable" style="rhombus;whiteSpace=wrap;html=1;rounded=0;shadow=1;labelBackgroundColor=none;strokeColor=#000000;strokeWidth=1;fillColor=#ffffff;fontFamily=Verdana;fontSize=8;fontColor=#000000;align=center;" vertex="1" parent="1">
          <mxGeometry x="415" y="330" width="100" height="60" as="geometry"/>
        </mxCell>
        <mxCell id="eXyIBpikk9vXLyjZJqM5-35" value="Yes" style="edgeStyle=orthogonalEdgeStyle;rounded=0;orthogonalLoop=1;jettySize=auto;html=1;" edge="1" parent="1" target="eXyIBpikk9vXLyjZJqM5-28">
          <mxGeometry relative="1" as="geometry">
            <mxPoint x="645" y="390" as="sourcePoint"/>
            <Array as="points">
              <mxPoint x="645" y="410"/>
              <mxPoint x="645" y="410"/>
            </Array>
          </mxGeometry>
        </mxCell>
        <mxCell id="eXyIBpikk9vXLyjZJqM5-37" value="" style="edgeStyle=orthogonalEdgeStyle;rounded=0;orthogonalLoop=1;jettySize=auto;html=1;entryX=0.5;entryY=0;entryDx=0;entryDy=0;exitX=1;exitY=0.5;exitDx=0;exitDy=0;" edge="1" parent="1" source="eXyIBpikk9vXLyjZJqM5-33" target="eXyIBpikk9vXLyjZJqM5-38">
          <mxGeometry relative="1" as="geometry">
            <mxPoint x="735" y="740" as="targetPoint"/>
            <mxPoint x="695" y="360" as="sourcePoint"/>
          </mxGeometry>
        </mxCell>
        <mxCell id="eXyIBpikk9vXLyjZJqM5-40" value="No&lt;br&gt;" style="text;html=1;resizable=0;points=[];align=center;verticalAlign=middle;labelBackgroundColor=#ffffff;" vertex="1" connectable="0" parent="eXyIBpikk9vXLyjZJqM5-37">
          <mxGeometry x="-0.3409" y="-1" relative="1" as="geometry">
            <mxPoint as="offset"/>
          </mxGeometry>
        </mxCell>
        <mxCell id="eXyIBpikk9vXLyjZJqM5-33" value="Is Green Bag&lt;br&gt;" style="rhombus;whiteSpace=wrap;html=1;rounded=0;shadow=1;labelBackgroundColor=none;strokeColor=#000000;strokeWidth=1;fillColor=#ffffff;fontFamily=Verdana;fontSize=8;fontColor=#000000;align=center;" vertex="1" parent="1">
          <mxGeometry x="595" y="330" width="100" height="60" as="geometry"/>
        </mxCell>
        <mxCell id="eXyIBpikk9vXLyjZJqM5-21" value="" style="edgeStyle=orthogonalEdgeStyle;rounded=0;orthogonalLoop=1;jettySize=auto;html=1;entryX=0;entryY=0.5;entryDx=0;entryDy=0;" edge="1" parent="1" source="eXyIBpikk9vXLyjZJqM5-18" target="eXyIBpikk9vXLyjZJqM5-28">
          <mxGeometry relative="1" as="geometry">
            <mxPoint x="595" y="500" as="targetPoint"/>
          </mxGeometry>
        </mxCell>
        <mxCell id="eXyIBpikk9vXLyjZJqM5-23" value="" style="edgeStyle=orthogonalEdgeStyle;rounded=0;orthogonalLoop=1;jettySize=auto;html=1;entryX=1;entryY=0.5;entryDx=0;entryDy=0;" edge="1" parent="1" source="eXyIBpikk9vXLyjZJqM5-18" target="eXyIBpikk9vXLyjZJqM5-24">
          <mxGeometry relative="1" as="geometry">
            <mxPoint x="465" y="610" as="targetPoint"/>
          </mxGeometry>
        </mxCell>
        <mxCell id="eXyIBpikk9vXLyjZJqM5-18" value="Should PUP Details be Edited" style="rhombus;whiteSpace=wrap;html=1;rounded=0;shadow=1;labelBackgroundColor=none;strokeColor=#000000;strokeWidth=1;fillColor=#ffffff;fontFamily=Verdana;fontSize=8;fontColor=#000000;align=center;" vertex="1" parent="1">
          <mxGeometry x="415" y="455" width="100" height="85" as="geometry"/>
        </mxCell>
        <mxCell id="eXyIBpikk9vXLyjZJqM5-27" value="" style="edgeStyle=orthogonalEdgeStyle;rounded=0;orthogonalLoop=1;jettySize=auto;html=1;entryX=0.5;entryY=0;entryDx=0;entryDy=0;" edge="1" parent="1" source="eXyIBpikk9vXLyjZJqM5-24" target="eXyIBpikk9vXLyjZJqM5-26">
          <mxGeometry relative="1" as="geometry">
            <mxPoint x="465" y="660" as="targetPoint"/>
          </mxGeometry>
        </mxCell>
        <mxCell id="eXyIBpikk9vXLyjZJqM5-24" value="Deny PUP" style="rounded=1;whiteSpace=wrap;html=1;shadow=1;labelBackgroundColor=none;strokeColor=#000000;strokeWidth=1;fillColor=#ffffff;fontFamily=Verdana;fontSize=8;fontColor=#000000;align=center;" vertex="1" parent="1">
          <mxGeometry x="245" y="480" width="100" height="40" as="geometry"/>
        </mxCell>
        <mxCell id="eXyIBpikk9vXLyjZJqM5-63" value="" style="edgeStyle=orthogonalEdgeStyle;rounded=0;orthogonalLoop=1;jettySize=auto;html=1;" edge="1" parent="1" source="eXyIBpikk9vXLyjZJqM5-26" target="eXyIBpikk9vXLyjZJqM5-62">
          <mxGeometry relative="1" as="geometry"/>
        </mxCell>
        <mxCell id="eXyIBpikk9vXLyjZJqM5-26" value="Note Reason for Denial" style="rounded=1;whiteSpace=wrap;html=1;shadow=1;labelBackgroundColor=none;strokeColor=#000000;strokeWidth=1;fillColor=#ffffff;fontFamily=Verdana;fontSize=8;fontColor=#000000;align=center;" vertex="1" parent="1">
          <mxGeometry x="245" y="560" width="100" height="40" as="geometry"/>
        </mxCell>
        <mxCell id="eXyIBpikk9vXLyjZJqM5-32" value="" style="edgeStyle=orthogonalEdgeStyle;rounded=0;orthogonalLoop=1;jettySize=auto;html=1;" edge="1" parent="1" source="eXyIBpikk9vXLyjZJqM5-28" target="eXyIBpikk9vXLyjZJqM5-31">
          <mxGeometry relative="1" as="geometry"/>
        </mxCell>
        <mxCell id="eXyIBpikk9vXLyjZJqM5-28" value="Driver Edit PUP Details&lt;br&gt;" style="verticalLabelPosition=bottom;verticalAlign=top;html=1;strokeWidth=2;shape=process;whiteSpace=wrap;rounded=1;size=0.14;arcSize=6;" vertex="1" parent="1">
          <mxGeometry x="595" y="467.5" width="100" height="60" as="geometry"/>
        </mxCell>
        <mxCell id="eXyIBpikk9vXLyjZJqM5-43" value="" style="edgeStyle=orthogonalEdgeStyle;rounded=0;orthogonalLoop=1;jettySize=auto;html=1;entryX=0.5;entryY=0;entryDx=0;entryDy=0;entryPerimeter=0;" edge="1" parent="1" target="60e70716793133e9-30">
          <mxGeometry relative="1" as="geometry">
            <mxPoint x="645" y="710" as="targetPoint"/>
            <mxPoint x="645" y="630" as="sourcePoint"/>
          </mxGeometry>
        </mxCell>
        <mxCell id="eXyIBpikk9vXLyjZJqM5-31" value="Deliver PUP" style="verticalLabelPosition=bottom;verticalAlign=top;html=1;strokeWidth=2;shape=process;whiteSpace=wrap;rounded=1;size=0.14;arcSize=6;" vertex="1" parent="1">
          <mxGeometry x="595" y="590" width="100" height="60" as="geometry"/>
        </mxCell>
        <mxCell id="eXyIBpikk9vXLyjZJqM5-44" value="" style="edgeStyle=orthogonalEdgeStyle;rounded=0;orthogonalLoop=1;jettySize=auto;html=1;entryX=1;entryY=0.5;entryDx=0;entryDy=0;entryPerimeter=0;" edge="1" parent="1" source="eXyIBpikk9vXLyjZJqM5-38" target="60e70716793133e9-30">
          <mxGeometry relative="1" as="geometry">
            <mxPoint x="805" y="600" as="targetPoint"/>
            <Array as="points">
              <mxPoint x="805" y="735"/>
            </Array>
          </mxGeometry>
        </mxCell>
        <mxCell id="eXyIBpikk9vXLyjZJqM5-38" value="Close PUP" style="rounded=1;whiteSpace=wrap;html=1;shadow=1;labelBackgroundColor=none;strokeColor=#000000;strokeWidth=1;fillColor=#ffffff;fontFamily=Verdana;fontSize=8;fontColor=#000000;align=center;" vertex="1" parent="1">
          <mxGeometry x="755" y="480" width="100" height="40" as="geometry"/>
        </mxCell>
        <mxCell id="eXyIBpikk9vXLyjZJqM5-59" value="" style="edgeStyle=orthogonalEdgeStyle;rounded=0;orthogonalLoop=1;jettySize=auto;html=1;" edge="1" parent="1" source="eXyIBpikk9vXLyjZJqM5-55" target="60e70716793133e9-4">
          <mxGeometry relative="1" as="geometry">
            <mxPoint x="160" y="40" as="targetPoint"/>
          </mxGeometry>
        </mxCell>
        <mxCell id="eXyIBpikk9vXLyjZJqM5-55" value="Start" style="strokeWidth=1;html=1;shape=mxgraph.flowchart.terminator;whiteSpace=wrap;rounded=0;shadow=1;labelBackgroundColor=none;fillColor=#ffffff;fontFamily=Verdana;fontSize=8;fontColor=#000000;align=center;" vertex="1" parent="1">
          <mxGeometry x="130" y="10" width="60" height="30" as="geometry"/>
        </mxCell>
        <mxCell id="eXyIBpikk9vXLyjZJqM5-65" value="No" style="edgeStyle=orthogonalEdgeStyle;rounded=0;orthogonalLoop=1;jettySize=auto;html=1;entryX=0;entryY=0.5;entryDx=0;entryDy=0;entryPerimeter=0;" edge="1" parent="1" source="eXyIBpikk9vXLyjZJqM5-62" target="60e70716793133e9-30">
          <mxGeometry relative="1" as="geometry">
            <mxPoint x="425" y="672.5" as="targetPoint"/>
          </mxGeometry>
        </mxCell>
        <mxCell id="eXyIBpikk9vXLyjZJqM5-67" value="Yes" style="edgeStyle=orthogonalEdgeStyle;rounded=0;orthogonalLoop=1;jettySize=auto;html=1;entryX=0.5;entryY=0;entryDx=0;entryDy=0;" edge="1" parent="1" source="eXyIBpikk9vXLyjZJqM5-62" target="eXyIBpikk9vXLyjZJqM5-68">
          <mxGeometry relative="1" as="geometry">
            <mxPoint x="295" y="795" as="targetPoint"/>
          </mxGeometry>
        </mxCell>
        <mxCell id="eXyIBpikk9vXLyjZJqM5-62" value="Should PUP be added back to System Queue" style="rhombus;whiteSpace=wrap;html=1;rounded=0;shadow=1;labelBackgroundColor=none;strokeColor=#000000;strokeWidth=1;fillColor=#ffffff;fontFamily=Verdana;fontSize=8;fontColor=#000000;align=center;" vertex="1" parent="1">
          <mxGeometry x="245" y="630" width="100" height="85" as="geometry"/>
        </mxCell>
        <mxCell id="eXyIBpikk9vXLyjZJqM5-71" value="" style="edgeStyle=orthogonalEdgeStyle;rounded=0;orthogonalLoop=1;jettySize=auto;html=1;entryX=0.5;entryY=1;entryDx=0;entryDy=0;entryPerimeter=0;" edge="1" parent="1" source="eXyIBpikk9vXLyjZJqM5-68" target="60e70716793133e9-30">
          <mxGeometry relative="1" as="geometry">
            <mxPoint x="610" y="740" as="targetPoint"/>
          </mxGeometry>
        </mxCell>
        <mxCell id="eXyIBpikk9vXLyjZJqM5-68" value="Note Reason for Denial" style="rounded=1;whiteSpace=wrap;html=1;shadow=1;labelBackgroundColor=none;strokeColor=#000000;strokeWidth=1;fillColor=#ffffff;fontFamily=Verdana;fontSize=8;fontColor=#000000;align=center;" vertex="1" parent="1">
          <mxGeometry x="245" y="760" width="100" height="40" as="geometry"/>
        </mxCell>
      </root>
    </mxGraphModel>
  </diagram>
</mxfile>
